<svg width="50" height="50" viewBox="0 0 50 50" fill="none" xmlns="http://www.w3.org/2000/svg">
<rect width="50" height="50" rx="25" fill="black"/>
<path d="M40.0947 12.3408L22.5332 16.9375L22.5146 16.9424L22.5039 16.958L18.1338 23.7598L18.0762 23.8496L18.1816 23.8369L28.4775 22.5684L28.4863 22.5674L28.4941 22.5635L39.3027 16.8203L31.1328 38.2002L20.7012 40.2061H20.7002L13.8203 41.6221L9.11523 38.1113L27.5 33.625L27.5234 33.6201L27.5332 33.5977L30.4434 27.1699L30.4785 27.0908L30.3926 27.0996L19.5127 28.1992L19.502 28.2012L19.4932 28.2061L9.74316 33.7451L17.8125 13.0234L36.3389 9.05371L40.0947 12.3408Z" fill="white" stroke="black" stroke-width="0.1"/>
</svg>
