<svg width="526" height="315" viewBox="0 0 526 315" fill="none" xmlns="http://www.w3.org/2000/svg">
<g clip-path="url(#clip0_311_1838)">
<path d="M148.232 114.237C148.096 119.494 148.745 124.741 150.156 129.807C151.711 134.139 153.582 138.35 155.756 142.407C156.534 143.607 156.959 145.001 156.981 146.431C156.981 148.18 155.931 149.931 153.657 151.679L142.636 159.027C141.306 159.985 139.725 160.532 138.088 160.601C136.095 160.464 134.225 159.591 132.84 158.152C130.482 155.619 128.372 152.866 126.54 149.93C124.791 146.956 123.04 143.63 121.117 139.608C107.472 155.7 90.327 163.746 69.683 163.746C54.983 163.746 43.267 159.546 34.695 151.146C26.123 142.746 21.749 131.556 21.749 117.561C21.749 102.691 26.997 90.62 37.669 81.523C48.341 72.426 62.51 67.877 80.529 67.877C86.7347 67.9277 92.93 68.3955 99.073 69.277C105.546 70.152 112.194 71.551 119.191 73.126V60.355C119.191 47.055 116.391 37.788 110.969 32.364C105.369 26.941 95.924 24.317 82.453 24.317C76.0868 24.3167 69.7434 25.0802 63.559 26.591C57.1279 28.1232 50.814 30.1108 44.665 32.539C42.6756 33.4291 40.6302 34.1888 38.542 34.813C37.6362 35.1117 36.6945 35.2883 35.742 35.338C33.293 35.338 32.068 33.589 32.068 29.915V21.343C32.068 18.543 32.418 16.443 33.293 15.22C34.6131 13.6254 36.2923 12.3663 38.193 11.546C45.2098 8.07424 52.6074 5.43241 60.236 3.67403C69.1503 1.3867 78.3243 0.269311 87.527 0.350028C108.349 0.350028 123.565 5.07303 133.362 14.52C142.984 23.967 147.882 38.312 147.882 57.556V114.237H148.232ZM77.206 140.828C83.3432 140.761 89.4287 139.697 95.225 137.679C101.646 135.458 107.375 131.597 111.844 126.479C114.664 123.254 116.7 119.421 117.792 115.279C118.994 110.296 119.581 105.185 119.541 100.059V92.719C114.237 91.4278 108.864 90.4349 103.449 89.745C97.9938 89.054 92.5008 88.705 87.002 88.7C75.281 88.7 66.709 90.974 60.936 95.7C55.163 100.426 52.364 107.071 52.364 115.818C52.364 124.04 54.464 130.163 58.837 134.362C63.037 138.736 69.159 140.835 77.206 140.835V140.828ZM217.684 159.722C214.535 159.722 212.436 159.197 211.036 157.973C209.636 156.923 208.412 154.473 207.362 151.15L166.249 15.92C165.452 13.6564 164.924 11.3069 164.675 8.92003C164.675 6.12003 166.075 4.54603 168.875 4.54603H186.019C189.343 4.54603 191.619 5.07103 192.842 6.29503C194.242 7.34503 195.291 9.79503 196.342 13.118L225.732 128.929L253.022 13.121C253.897 9.62103 254.946 7.34803 256.346 6.29803C257.746 5.24803 260.195 4.54903 263.346 4.54903H277.346C280.67 4.54903 282.946 5.07403 284.346 6.29803C285.746 7.34803 286.97 9.79803 287.67 13.121L315.311 130.332L345.566 13.121C346.616 9.62103 347.84 7.34803 349.066 6.29803C350.466 5.24803 352.74 4.54903 355.889 4.54903H372.159C374.959 4.54903 376.533 5.94903 376.533 8.92303C376.492 9.86428 376.375 10.8007 376.183 11.723C375.909 13.2153 375.499 14.6794 374.958 16.097L332.797 151.327C331.748 154.826 330.523 157.1 329.123 158.15C327.145 159.416 324.82 160.028 322.475 159.899H307.429C304.105 159.899 301.829 159.374 300.429 158.15C299.029 156.926 297.805 154.65 297.105 151.15L269.991 38.312L243.049 150.975C242.174 154.475 241.125 156.748 239.725 157.975C238.325 159.202 235.876 159.724 232.725 159.724L217.684 159.722ZM442.484 164.445C433.411 164.455 424.369 163.398 415.543 161.296C406.796 159.196 399.973 156.922 395.425 154.296C392.625 152.722 390.702 150.972 390.002 149.396C389.321 147.852 388.963 146.184 388.952 144.496V135.58C388.952 131.906 390.352 130.157 392.976 130.157C394.047 130.161 395.111 130.338 396.125 130.682C397.175 131.032 398.749 131.732 400.499 132.431C406.678 135.149 413.129 137.201 419.743 138.554C426.595 139.945 433.569 140.649 440.561 140.654C451.582 140.654 460.155 138.73 466.103 134.881C468.953 133.162 471.296 130.718 472.894 127.799C474.493 124.88 475.289 121.589 475.203 118.262C475.265 116.01 474.879 113.768 474.068 111.666C473.257 109.564 472.038 107.644 470.48 106.016C467.331 102.692 461.38 99.716 452.811 96.916L427.439 89.045C414.668 85.022 405.221 79.074 399.449 71.2C393.817 63.9397 390.742 55.0217 390.702 45.833C390.56 39.0593 392.188 32.3658 395.425 26.414C398.55 20.7858 402.847 15.894 408.025 12.069C413.478 7.94113 419.646 4.85603 426.219 2.96903C433.38 0.907724 440.805 -0.0925784 448.257 2.82675e-05C452.175 -0.0283769 456.091 0.205479 459.978 0.700028C464.002 1.22503 467.678 1.92503 471.349 2.62403C474.849 3.49903 478.172 4.37303 481.321 5.42403C483.874 6.21368 486.337 7.26913 488.669 8.57303C490.729 9.61179 492.524 11.1079 493.917 12.947C495.055 14.6494 495.607 16.6758 495.491 18.72V26.942C495.491 30.616 494.091 32.542 491.467 32.542C490.067 32.542 487.793 31.842 484.819 30.442C474.847 25.8934 463.651 23.619 451.23 23.619C441.258 23.619 433.386 25.193 427.963 28.519C422.54 31.845 419.741 36.919 419.741 44.089C419.693 46.412 420.136 48.719 421.04 50.8593C421.944 52.9997 423.29 54.9251 424.989 56.51C428.489 59.834 434.961 63.158 444.233 66.132L469.075 74C481.675 78.024 490.768 83.622 496.191 90.794C501.531 97.8315 504.364 106.453 504.238 115.286C504.328 122.313 502.771 129.263 499.69 135.579C496.586 141.567 492.23 146.817 486.919 150.974C481.143 155.47 474.548 158.799 467.5 160.774C459.397 163.266 450.961 164.505 442.483 164.448L442.484 164.445Z" fill="#595BD4"/>
<path d="M475.548 249.464C417.992 291.975 334.37 314.542 262.469 314.542C161.702 314.546 70.9069 277.283 2.33191 215.354C-3.09109 210.454 1.80691 203.808 8.27991 207.654C82.4549 250.69 173.95 276.754 268.593 276.754C332.447 276.754 402.598 263.454 467.152 236.167C476.774 231.793 484.996 242.467 475.552 249.467L475.548 249.464Z" fill="#FE9526"/>
<path d="M499.515 222.176C492.167 212.729 450.881 217.628 432.162 219.902C426.562 220.602 425.689 215.702 430.762 212.03C463.651 188.938 517.708 195.585 524.006 203.283C530.306 211.155 522.257 265.212 491.467 291.104C486.744 295.128 482.195 293.028 484.294 287.78C491.293 270.46 506.863 231.448 499.515 222.176Z" fill="#FE9526"/>
</g>
<defs>
<clipPath id="clip0_311_1838">
<rect width="525.999" height="314.545" fill="white"/>
</clipPath>
</defs>
</svg>
