<svg width="125" height="81" viewBox="0 0 125 81" fill="none" xmlns="http://www.w3.org/2000/svg">
<path d="M123.34 28.1C119.04 25.6 113.34 25.3 108.54 26.7C107.94 21.5 104.54 17 100.54 13.8L98.9402 12.5L97.5402 14.1C94.8402 17.2 94.0402 22.4 94.4402 26.4C94.7402 29.3 95.6402 32.3 97.4402 34.7C96.0402 35.5 94.5402 36.6 93.1402 37.1C90.3402 38.1 87.2402 39.1 84.2402 39.1H77.5402V25H64.5402V0H49.5402V12H24.5402V25H11.5402V39H0.340225L0.140225 40.5C-0.359775 46.9 0.440225 53.1 3.14022 59L4.24022 61.2L4.34022 61.4C12.2402 74.8 26.0402 80.4 41.1402 80.4C70.3402 80.4 94.4402 67.3 105.44 39.8C112.84 40.2 120.44 38 124.04 30.9L124.94 29.1L123.34 28.1ZM26.5402 15H36.5402V26H26.5402V15ZM39.6402 59.2C39.6402 60.9 38.2402 62.3 36.5402 62.3C34.8402 62.3 33.4402 60.9 33.4402 59.2C33.4402 57.5 34.8402 56.1 36.5402 56.1C38.2402 56.2 39.6402 57.5 39.6402 59.2ZM26.5402 28H36.5402V39H26.5402V28ZM13.5402 28H24.5402V39H13.5402V28ZM41.2402 78.2C25.4402 78.1 16.9402 72.8 9.94022 65.8C12.0402 65.9 14.0402 66 15.8402 66C17.4402 66 19.0402 66 20.5402 65.9C24.4402 65.7 27.8402 65.2 30.6402 64.4C32.9402 69.7 37.1402 74.6 44.6402 78.2H41.2402ZM49.5402 39H38.5402V28H49.5402V39ZM49.5402 26H38.5402V15H49.5402V26ZM62.5402 39H51.5402V28H62.5402V39ZM62.5402 26H51.5402V15H62.5402V26ZM62.5402 13H51.5402V2H62.5402V13ZM75.5402 39H64.5402V28H75.5402V39ZM37.3402 57.2C37.1402 57.1 36.8402 57 36.5402 57C35.3402 57 34.3402 58 34.3402 59.2C34.3402 60.4 35.3402 61.4 36.5402 61.4C37.7402 61.4 38.7402 60.4 38.7402 59.2C38.7402 58.9 38.6402 58.6 38.5402 58.4C38.3402 58.7 38.1402 58.9 37.7402 58.9C37.2402 58.9 36.8402 58.5 36.8402 58C36.9402 57.6 37.1402 57.3 37.3402 57.2Z" fill="#167FFC"/>
</svg>
