<svg width="50" height="50" viewBox="0 0 50 50" fill="none" xmlns="http://www.w3.org/2000/svg">
<mask id="path-1-inside-1_289_1780" fill="white">
<path d="M34.6291 26.0413L25.128 13.5413H26.3572C27.2322 13.5413 28.0562 13.9497 28.5853 14.6465L35.9385 24.3205L43.2916 14.6465C43.8197 13.9497 44.6437 13.5413 45.5187 13.5413H46.7478L37.2468 26.0413L47.1916 39.1247H45.9624C45.0874 39.1247 44.2635 38.7163 43.7343 38.0195L35.9374 27.7622L28.1405 38.0195C27.6114 38.7153 26.7874 39.1247 25.9124 39.1247H24.6833L34.6291 26.0413ZM4.16659 27.083V27.8986C4.16659 32.2726 7.05825 36.2653 11.3208 37.2445C15.9447 38.307 20.1645 35.9455 21.9749 32.2007C22.2562 31.6195 22.8416 31.2497 23.4864 31.2497H24.5572C23.1833 36.0986 18.7072 39.6445 13.4041 39.582C7.05929 39.507 2.08325 34.0559 2.08325 27.2309V27.083V24.9997V24.2538C2.08325 18.6007 6.05408 13.5528 11.6364 12.6538C18.8072 11.4986 24.9999 17.0049 24.9999 23.958V27.083H4.16659ZM4.16659 24.9997H22.9166V23.958C22.9166 18.0747 17.4978 13.458 11.3791 14.8247C7.08742 15.784 4.16659 19.7934 4.16659 24.6976V24.9997Z"/>
</mask>
<path d="M34.6291 26.0413L25.128 13.5413H26.3572C27.2322 13.5413 28.0562 13.9497 28.5853 14.6465L35.9385 24.3205L43.2916 14.6465C43.8197 13.9497 44.6437 13.5413 45.5187 13.5413H46.7478L37.2468 26.0413L47.1916 39.1247H45.9624C45.0874 39.1247 44.2635 38.7163 43.7343 38.0195L35.9374 27.7622L28.1405 38.0195C27.6114 38.7153 26.7874 39.1247 25.9124 39.1247H24.6833L34.6291 26.0413ZM4.16659 27.083V27.8986C4.16659 32.2726 7.05825 36.2653 11.3208 37.2445C15.9447 38.307 20.1645 35.9455 21.9749 32.2007C22.2562 31.6195 22.8416 31.2497 23.4864 31.2497H24.5572C23.1833 36.0986 18.7072 39.6445 13.4041 39.582C7.05929 39.507 2.08325 34.0559 2.08325 27.2309V27.083V24.9997V24.2538C2.08325 18.6007 6.05408 13.5528 11.6364 12.6538C18.8072 11.4986 24.9999 17.0049 24.9999 23.958V27.083H4.16659ZM4.16659 24.9997H22.9166V23.958C22.9166 18.0747 17.4978 13.458 11.3791 14.8247C7.08742 15.784 4.16659 19.7934 4.16659 24.6976V24.9997Z" fill="#EEEEEE"/>
<path d="M34.6291 26.0413L49.7548 37.5397L58.4951 26.0421L49.7556 14.544L34.6291 26.0413ZM25.128 13.5413V-5.45867H-13.179L10.0016 25.0387L25.128 13.5413ZM28.5853 14.6465L13.4535 26.1368L13.4589 26.144L28.5853 14.6465ZM35.9385 24.3205L20.8121 35.818L35.9385 55.7187L51.0648 35.818L35.9385 24.3205ZM43.2916 14.6465L58.418 26.144L58.4262 26.1333L58.4344 26.1225L43.2916 14.6465ZM46.7478 13.5413L61.8743 25.0387L85.0549 -5.45867H46.7478V13.5413ZM37.2468 26.0413L22.1203 14.544L13.3812 26.0415L22.1205 37.539L37.2468 26.0413ZM47.1916 39.1247V58.1247H85.4995L62.3179 27.627L47.1916 39.1247ZM43.7343 38.0195L58.8662 26.5292L58.8604 26.5216L43.7343 38.0195ZM35.9374 27.7622L51.0636 16.2643L35.9374 -3.63506L20.8113 16.2643L35.9374 27.7622ZM28.1405 38.0195L43.2641 49.5206L43.2667 49.5173L28.1405 38.0195ZM24.6833 39.1247L9.55756 27.6263L-13.6271 58.1247H24.6833V39.1247ZM4.16659 27.083V8.083H-14.8334V27.083H4.16659ZM11.3208 37.2445L15.5757 18.727L15.5746 18.7268L11.3208 37.2445ZM21.9749 32.2007L4.87189 23.9251L4.86907 23.9309L21.9749 32.2007ZM24.5572 31.2497L42.8375 36.4294L49.6889 12.2497H24.5572V31.2497ZM13.4041 39.582L13.1795 58.5806L13.1802 58.5806L13.4041 39.582ZM11.6364 12.6538L14.6572 31.4122L14.6583 31.412L11.6364 12.6538ZM24.9999 27.083V46.083H43.9999V27.083H24.9999ZM4.16659 24.9997H-14.8334V43.9997H4.16659V24.9997ZM22.9166 24.9997V43.9997H41.9166V24.9997H22.9166ZM11.3791 14.8247L7.23735 -3.71842L7.23406 -3.71768L11.3791 14.8247ZM34.6291 26.0413L49.7556 14.544L40.2545 2.04395L25.128 13.5413L10.0016 25.0387L19.5026 37.5387L34.6291 26.0413ZM25.128 13.5413V32.5413H26.3572V13.5413V-5.45867H25.128V13.5413ZM26.3572 13.5413V32.5413C21.3003 32.5413 16.5221 30.178 13.4535 26.1368L28.5853 14.6465L43.7172 3.15627C39.5902 -2.27867 33.1642 -5.45867 26.3572 -5.45867V13.5413ZM28.5853 14.6465L13.4589 26.144L20.8121 35.818L35.9385 24.3205L51.0648 12.823L43.7117 3.14905L28.5853 14.6465ZM35.9385 24.3205L51.0648 35.818L58.418 26.144L43.2916 14.6465L28.1652 3.14905L20.8121 12.823L35.9385 24.3205ZM43.2916 14.6465L58.4344 26.1225C55.3596 30.1797 50.5724 32.5413 45.5187 32.5413V13.5413V-5.45867C38.715 -5.45867 32.2799 -2.2804 28.1488 3.17063L43.2916 14.6465ZM45.5187 13.5413V32.5413H46.7478V13.5413V-5.45867H45.5187V13.5413ZM46.7478 13.5413L31.6214 2.04396L22.1203 14.544L37.2468 26.0413L52.3733 37.5387L61.8743 25.0387L46.7478 13.5413ZM37.2468 26.0413L22.1205 37.539L32.0653 50.6223L47.1916 39.1247L62.3179 27.627L52.3731 14.5437L37.2468 26.0413ZM47.1916 39.1247V20.1247H45.9624V39.1247V58.1247H47.1916V39.1247ZM45.9624 39.1247V20.1247C51.0194 20.1247 55.7975 22.488 58.8662 26.5292L43.7343 38.0195L28.6024 49.5097C32.7294 54.9447 39.1554 58.1247 45.9624 58.1247V39.1247ZM43.7343 38.0195L58.8604 26.5216L51.0636 16.2643L35.9374 27.7622L20.8113 39.26L28.6082 49.5173L43.7343 38.0195ZM35.9374 27.7622L20.8113 16.2643L13.0144 26.5216L28.1405 38.0195L43.2667 49.5173L51.0636 39.26L35.9374 27.7622ZM28.1405 38.0195L13.017 26.5183C16.0752 22.4968 20.8423 20.1247 25.9124 20.1247V39.1247V58.1247C32.7325 58.1247 39.1475 54.9338 43.2641 49.5206L28.1405 38.0195ZM25.9124 39.1247V20.1247H24.6833V39.1247V58.1247H25.9124V39.1247ZM24.6833 39.1247L39.8089 50.6231L49.7548 37.5397L34.6291 26.0413L19.5034 14.5429L9.55756 27.6263L24.6833 39.1247ZM4.16659 27.083H-14.8334V27.8986H4.16659H23.1666V27.083H4.16659ZM4.16659 27.8986H-14.8334C-14.8334 40.2384 -6.66266 52.6082 7.06693 55.7622L11.3208 37.2445L15.5746 18.7268C20.7792 19.9223 23.1666 24.3067 23.1666 27.8986H4.16659ZM11.3208 37.2445L7.06579 55.7619C20.7864 58.9146 33.6204 51.7651 39.0808 40.4705L21.9749 32.2007L4.86907 23.9309C6.70857 20.1259 11.103 17.6993 15.5757 18.727L11.3208 37.2445ZM21.9749 32.2007L39.0779 40.4764C36.2126 46.398 30.1885 50.2497 23.4864 50.2497V31.2497V12.2497C15.4947 12.2497 8.29972 16.8409 4.87189 23.9251L21.9749 32.2007ZM23.4864 31.2497V50.2497H24.5572V31.2497V12.2497H23.4864V31.2497ZM24.5572 31.2497L6.27689 26.0699C7.16882 22.9221 10.083 20.5415 13.628 20.5833L13.4041 39.582L13.1802 58.5806C27.3315 58.7474 39.1977 49.2751 42.8375 36.4294L24.5572 31.2497ZM13.4041 39.582L13.6287 20.5833C19.0229 20.6471 21.0833 25.0368 21.0833 27.2309H2.08325H-16.9167C-16.9167 43.0751 -4.90434 58.3669 13.1795 58.5806L13.4041 39.582ZM2.08325 27.2309H21.0833V27.083H2.08325H-16.9167V27.2309H2.08325ZM2.08325 27.083H21.0833V24.9997H2.08325H-16.9167V27.083H2.08325ZM2.08325 24.9997H21.0833V24.2538H2.08325H-16.9167V24.9997H2.08325ZM2.08325 24.2538H21.0833C21.0833 27.1408 19.0398 30.7064 14.6572 31.4122L11.6364 12.6538L8.61558 -6.10449C-6.93162 -3.60081 -16.9167 10.0606 -16.9167 24.2538H2.08325ZM11.6364 12.6538L14.6583 31.412C10.1056 32.1454 5.99992 28.5278 5.99992 23.958H24.9999H43.9999C43.9999 5.48193 27.5088 -9.14816 8.61447 -6.10431L11.6364 12.6538ZM24.9999 23.958H5.99992V27.083H24.9999H43.9999V23.958H24.9999ZM24.9999 27.083V8.083H4.16659V27.083V46.083H24.9999V27.083ZM4.16659 24.9997V43.9997H22.9166V24.9997V5.99967H4.16659V24.9997ZM22.9166 24.9997H41.9166V23.958H22.9166H3.91658V24.9997H22.9166ZM22.9166 23.958H41.9166C41.9166 6.14799 25.4574 -7.788 7.23735 -3.71842L11.3791 14.8247L15.5208 33.3678C9.53826 34.704 3.91658 30.0013 3.91658 23.958H22.9166ZM11.3791 14.8247L7.23406 -3.71768C-7.12142 -0.508606 -14.8334 12.3946 -14.8334 24.6976H4.16659H23.1666C23.1666 27.1922 21.2963 32.0767 15.5241 33.367L11.3791 14.8247ZM4.16659 24.6976H-14.8334V24.9997H4.16659H23.1666V24.6976H4.16659Z" fill="#EEEEEE" mask="url(#path-1-inside-1_289_1780)"/>
</svg>
