<svg width="57" height="56" viewBox="0 0 57 56" fill="none" xmlns="http://www.w3.org/2000/svg">
<g clip-path="url(#clip0_289_1796)">
<path d="M55.6754 25.5054L31.2253 1.05609C29.818 -0.35203 27.5343 -0.35203 26.1253 1.05609L21.0481 6.13337L27.4888 12.5741C28.9855 12.0684 30.7018 12.4077 31.8948 13.6008C33.0936 14.8015 33.4305 16.5325 32.9125 18.034L39.1195 24.2414C40.6212 23.724 42.354 24.0587 43.5534 25.2601C45.2297 26.9358 45.2297 29.6516 43.5534 31.3284C41.8766 33.0053 39.1609 33.0053 37.4833 31.3284C36.2224 30.0662 35.9109 28.2144 36.5492 26.661L30.7606 20.8724L30.76 36.1057C31.1796 36.3132 31.5628 36.5873 31.8948 36.9173C33.5711 38.593 33.5711 41.309 31.8948 42.9871C30.2181 44.6632 27.501 44.6632 25.8267 42.9871C24.1504 41.309 24.1504 38.5932 25.8267 36.9175C26.2284 36.5156 26.7058 36.1973 27.2313 35.981V20.6057C26.7051 20.3909 26.2274 20.0724 25.8267 19.6692C24.5566 18.4009 24.2513 16.5373 24.9021 14.9778L18.553 8.62804L1.78801 25.3923C0.379257 26.8017 0.379257 29.0857 1.78801 30.494L26.2386 54.9437C27.6463 56.3521 29.9296 56.3521 31.339 54.9437L55.6752 30.6076C57.0835 29.1988 57.0837 26.9135 55.6754 25.5054Z" fill="#EEEEEE"/>
</g>
<defs>
<clipPath id="clip0_289_1796">
<rect width="57" height="56" fill="white"/>
</clipPath>
</defs>
</svg>
