<svg width="32" height="32" viewBox="0 0 32 32" fill="none" xmlns="http://www.w3.org/2000/svg">
<g clip-path="url(#clip0_311_1836)">
<path d="M0.384033 0.669922V31.9659H31.68V0.669922H0.384033ZM16.718 27.4419C16.257 28.3789 15.376 28.9949 14.356 29.2919C12.788 29.6519 11.289 29.4469 10.173 28.7769C9.42603 28.3189 8.84303 27.6139 8.44803 26.8019C9.24203 26.3169 10.034 25.8289 10.828 25.3439C10.849 25.3529 10.911 25.4659 10.995 25.6119C11.298 26.1209 11.56 26.4809 12.075 26.7329C12.581 26.9049 13.69 27.0159 14.119 26.1259C14.381 25.6739 14.297 24.1899 14.297 22.5809C14.297 20.0519 14.309 17.5649 14.309 15.0049H17.236C17.236 17.6929 17.251 20.3879 17.236 23.0719C17.242 24.7169 17.385 26.2129 16.718 27.4419ZM28.862 26.6149C27.845 30.0959 22.171 30.2089 19.905 27.9089C19.426 27.3679 19.126 27.0849 18.84 26.4599C20.045 25.7669 20.045 25.7669 21.217 25.0889C21.854 26.0679 22.443 26.6059 23.502 26.8259C24.939 27.0009 26.385 26.5079 26.061 24.9819C25.728 23.7349 23.119 23.4319 21.343 22.0989C19.54 20.8879 19.118 17.9459 20.599 16.2649C21.093 15.6429 21.935 15.1789 22.818 14.9559L23.74 14.8369C25.51 14.8009 26.617 15.2679 27.429 16.1759C27.655 16.4049 27.839 16.6519 28.185 17.1879C27.242 17.7889 27.245 17.7829 25.894 18.6579C25.605 18.0359 25.127 17.6459 24.621 17.4769C23.836 17.2389 22.845 17.4979 22.64 18.3279C22.569 18.5839 22.584 18.8219 22.697 19.2439C23.015 19.9699 24.083 20.2849 25.041 20.7249C27.799 21.8439 28.73 23.0419 28.959 24.4699C29.179 25.6989 28.905 26.4959 28.864 26.6149H28.862Z" fill="#D8A353"/>
</g>
<defs>
<clipPath id="clip0_311_1836">
<rect width="32" height="32" fill="white"/>
</clipPath>
</defs>
</svg>
