<svg width="49" height="60" viewBox="0 0 49 60" fill="none" xmlns="http://www.w3.org/2000/svg">
<path d="M24.9119 44.3748C24.9119 44.3748 24.9119 23.6459 25.5905 23.6479C26.1154 23.6479 26.7981 50.3868 26.7981 50.3868C25.859 50.2748 24.9119 45.9873 24.9119 44.3748ZM38.0683 23.888C36.2551 15.8533 32.2832 8.94498 26.806 3.6132L26.7922 3.6012C26.1252 2.56886 25.5156 1.38446 25.0263 0.136045L24.9789 0C24.9809 0.0400133 24.9809 0.0880293 24.9809 0.136045C24.9809 1.26642 24.4817 2.27676 23.6945 2.95499L23.6886 2.95899C16.6367 9.02901 12.15 17.974 12.002 27.9833V28.0093C12 28.1334 12 28.2794 12 28.4255C12 38.3428 16.7058 47.1457 23.9766 52.6636L24.0535 52.7196L24.2252 52.8456C24.5422 55.2251 24.8132 57.6099 25.0381 60H26.2239C26.5514 57.017 26.9934 54.4061 27.5716 51.8453L27.4807 52.3234C28.2621 51.7733 28.9448 51.2031 29.5821 50.5849L29.5762 50.5909C35.1028 45.3951 38.5517 37.9927 38.5517 29.7759C38.5517 29.6539 38.5517 29.5338 38.5497 29.4118V29.4298C38.5438 27.4672 38.3682 25.5485 38.0348 23.6859L38.0643 23.884L38.0683 23.888Z" fill="#EEEEEE"/>
</svg>
