<svg width="61" height="60" viewBox="0 0 61 60" fill="none" xmlns="http://www.w3.org/2000/svg">
<g clip-path="url(#clip0_289_1810)">
<path d="M18.6985 18L20.3198 16.829C19.8119 16.1258 18.9086 15.8301 18.0832 16.097C17.2577 16.3639 16.6985 17.1325 16.6985 18H18.6985ZM30.6985 56C16.3391 56 4.69849 44.3596 4.69849 30H0.698486C0.698486 46.5684 14.1299 60 30.6985 60V56ZM56.6985 30C56.6985 44.3596 45.0581 56 30.6985 56V60C47.2669 60 60.6985 46.5684 60.6985 30H56.6985ZM30.6985 4C45.0581 4 56.6985 15.6406 56.6985 30H60.6985C60.6985 13.4314 47.2669 0 30.6985 0V4ZM30.6985 0C14.1299 0 0.698486 13.4314 0.698486 30H4.69849C4.69849 15.6406 16.3391 4 30.6985 4V0ZM20.6985 48V18H16.6985V48H20.6985ZM17.0771 19.171L43.0773 55.1708L46.3197 52.8292L20.3198 16.829L17.0771 19.171ZM40.6985 16V40H44.6985V16H40.6985Z" fill="#EEEEEE"/>
</g>
<defs>
<clipPath id="clip0_289_1810">
<rect width="61" height="60" fill="white"/>
</clipPath>
</defs>
</svg>
