<svg width="83" height="75" viewBox="0 0 83 75" fill="none" xmlns="http://www.w3.org/2000/svg">
<g clip-path="url(#clip0_310_1826)">
<path d="M70.7388 54.7304C76.4324 54.7304 78.5376 51.1471 80.5163 45.7752C82.5668 40.2429 82.4779 34.9204 80.5163 27.8339C79.1049 22.7303 76.4358 18.8787 70.7388 18.8787H63.4015V26.7145C63.4015 32.7926 57.6874 37.9147 51.1736 37.9147H31.6187C26.2703 37.9147 21.8412 42.0439 21.8412 46.8853V63.7041C21.8412 68.4932 26.4549 71.3025 31.6187 72.6747C37.8044 74.3091 43.7577 74.6052 51.1702 72.6747C56.0948 71.3857 60.9477 68.7892 60.9477 63.7041V56.9784H41.4098V54.7335H70.7388V54.7304ZM52.3971 61.4561C54.4271 61.4561 56.0778 62.9609 56.0778 64.8112C56.0778 66.6799 54.4305 68.1817 52.3971 68.1817C51.4151 68.1712 50.4774 67.8111 49.7881 67.1799C49.0988 66.5486 48.7137 65.6973 48.7165 64.8112C48.7164 63.9272 49.103 63.0789 49.7922 62.4507C50.4814 61.8224 51.4175 61.465 52.3971 61.4561Z" fill="#FE9526"/>
<path d="M11.7699 54.7335H18.4887V46.6695C18.4887 40.8381 24.0729 35.6975 30.7165 35.6975H50.268C55.7052 35.6975 60.0455 31.6516 60.0455 26.7269V9.89575C60.0455 5.10669 55.5788 1.51721 50.268 0.712347C43.7132 -0.265202 36.5912 -0.209695 30.7165 0.730849L30.7199 0.727765C22.4427 2.04761 20.9459 4.80448 20.9459 9.90809V16.6337H40.5179V18.8818H13.6016C7.90809 18.8818 2.92538 21.9717 1.37384 27.837C-0.420352 34.5627 -0.492119 38.7566 1.37384 45.7783C2.76134 50.9991 6.07973 54.7335 11.7699 54.7335ZM29.493 12.1407C28.5123 12.135 27.5741 11.7786 26.8841 11.1497C26.1942 10.5207 25.8087 9.67057 25.8124 8.7856C25.8087 7.89919 26.1936 7.04742 26.8831 6.41603C27.5726 5.78463 28.5107 5.42483 29.493 5.41507C31.5093 5.41507 33.1737 6.93227 33.1737 8.7856C33.1737 10.6389 31.5264 12.1407 29.493 12.1407Z" fill="#595BD4"/>
</g>
<defs>
<clipPath id="clip0_310_1826">
<rect width="82.02" height="74.01" fill="white"/>
</clipPath>
</defs>
</svg>
