<svg width="54" height="60" viewBox="0 0 54 60" fill="none" xmlns="http://www.w3.org/2000/svg">
<g clip-path="url(#clip0_289_1815)">
<path d="M24.1567 25.3137C23.2329 25.8436 22.488 26.6336 22.0162 27.584C21.5444 28.5344 21.3669 29.6025 21.5061 30.6531C21.6454 31.7037 22.0951 32.6897 22.7985 33.4864C23.5018 34.2831 24.4272 34.8547 25.4576 35.1289C26.488 35.4032 27.5771 35.3677 28.5872 35.0271C29.5973 34.6864 30.483 34.0559 31.1324 33.2151C31.7817 32.3744 32.1655 31.3613 32.2352 30.3039C32.305 29.2465 32.0575 28.1923 31.524 27.2746C30.8088 26.0441 29.6308 25.1463 28.2491 24.7785C26.8675 24.4108 25.3954 24.6033 24.1567 25.3137ZM48.3304 31.1267C47.9763 30.7247 47.6027 30.3217 47.2095 29.9175C47.4841 29.6308 47.7499 29.3443 48.0068 29.058C52.8563 23.6452 54.903 18.2169 53.0065 14.9535C51.188 11.8245 45.7785 10.892 39.0063 12.2001C38.3393 12.3297 37.6759 12.476 37.0162 12.6388C36.8899 12.2063 36.7556 11.7763 36.6132 11.3488C34.3158 4.47125 30.6046 -0.00236905 26.8114 9.41203e-07C23.1742 0.00165094 19.6588 4.19126 17.4162 10.6725C17.1956 11.3118 16.9915 11.9566 16.8039 12.6066C16.3628 12.4991 15.9199 12.3998 15.4751 12.3087C8.32994 10.8514 2.57494 11.8112 0.682133 15.0765C-1.13285 18.2078 0.765273 23.3259 5.29814 28.4928C5.74768 29.004 6.20996 29.5038 6.68495 29.9921C6.125 30.5651 5.59475 31.1377 5.10054 31.7072C0.677543 36.8012 -1.11204 41.8356 0.700011 44.9534C2.57144 48.1738 8.24544 49.2265 15.1516 47.8764C15.7113 47.7662 16.2679 47.6422 16.8214 47.5044C17.0242 48.2076 17.2466 48.9046 17.4887 49.5954C19.7214 55.9466 23.217 60.0013 26.8414 60C30.5844 59.9978 34.3367 55.6414 36.6101 49.0238C36.7896 48.5008 36.9596 47.9577 37.1207 47.3985C37.8357 47.5752 38.5553 47.732 39.2795 47.8689C45.9335 49.1195 51.2158 48.1359 53.0246 45.0159C54.8923 41.7931 52.9666 36.3879 48.3304 31.1267ZM2.91806 16.3555C4.08334 14.3455 8.78652 13.5613 14.9558 14.8195C15.3501 14.9 15.7511 14.99 16.1589 15.0895C15.5565 17.7363 15.1316 20.4198 14.8867 23.1225C12.6607 24.6781 10.5384 26.3753 8.53306 28.2032C8.09125 27.7493 7.66123 27.2844 7.243 26.8085C3.35916 22.3815 1.82427 18.2424 2.91806 16.3555ZM14.6555 33.5397C13.1137 32.3799 11.6807 31.1917 10.3802 29.9967C11.6798 28.8091 13.1137 27.6249 14.6524 26.4683C14.5971 27.6466 14.5697 28.8258 14.5702 30.0059C14.571 31.1842 14.5995 32.3622 14.6555 33.5397ZM14.6537 45.3615C12.0362 45.9397 9.33394 46.0344 6.68193 45.6409C5.95493 45.5847 5.24726 45.3809 4.60265 45.0423C3.95804 44.7036 3.39019 44.2373 2.93419 43.672C1.83472 41.78 3.2717 37.738 7.05435 33.3813C7.52991 32.8353 8.02106 32.3036 8.52781 31.7861C10.5334 33.6237 12.6592 35.3275 14.8912 36.8863C15.1394 39.6235 15.5694 42.3414 16.1783 45.0223C15.673 45.1478 15.1648 45.2609 14.6537 45.3615ZM36.0986 21.2435C35.0858 20.6095 34.0604 19.9958 33.0225 19.4025C32.0012 18.8185 30.9675 18.2565 29.9216 17.7163C31.7125 16.9683 33.4728 16.3295 35.1723 15.8089C35.5729 17.6038 35.8821 19.4176 36.0986 21.2435ZM19.8563 11.5056C21.7777 5.95219 24.6207 2.56403 26.8128 2.5631C29.1474 2.56199 32.1808 6.21787 34.1643 12.156C34.2932 12.5431 34.415 12.9323 34.5297 13.3238C31.9239 14.1267 29.3743 15.1 26.8979 16.2374C24.4317 15.0866 21.8902 14.1025 19.2906 13.2916C19.4644 12.6917 19.653 12.0964 19.8563 11.5056ZM18.6472 15.777C20.4199 16.3313 22.1632 16.9741 23.8707 17.7029C21.7551 18.7875 19.6941 19.9689 17.6878 21.2471C17.9302 19.3331 18.2527 17.4993 18.6472 15.777ZM17.6922 38.7589C18.6927 39.3952 19.7079 40.0079 20.7376 40.5971C21.788 41.1979 22.8524 41.7734 23.9308 42.3238C22.2103 43.0778 20.4519 43.7436 18.6627 44.3185C18.2636 42.5723 17.9376 40.7062 17.6922 38.7589ZM34.1681 48.1954C33.3646 50.7368 32.0972 53.1096 30.4291 55.1952C30.0169 55.7926 29.4855 56.2999 28.8682 56.6853C28.251 57.0708 27.5607 57.3264 26.84 57.4363C24.6409 57.4376 21.834 54.1813 19.9246 48.75C19.6997 48.1078 19.4929 47.4599 19.304 46.806C21.9159 45.9689 24.4678 44.9569 26.9419 43.7769C29.4388 44.9217 32.0086 45.9023 34.6348 46.7124C34.4914 47.2104 34.3358 47.7047 34.1681 48.1954ZM35.262 44.2228C33.543 43.6948 31.7571 43.0452 29.9405 42.2863C30.9646 41.7509 31.9961 41.1854 33.035 40.59C34.1012 39.9784 35.1401 39.3515 36.1519 38.7093C35.9504 40.5611 35.6534 42.4013 35.262 44.2228ZM36.6098 29.9948C36.612 31.8167 36.5547 33.6371 36.438 35.4561C34.9501 36.4564 33.3793 37.4331 31.745 38.3704C30.1175 39.3038 28.5048 40.1617 26.923 40.9381C25.2583 40.1456 23.6258 39.2916 22.0254 38.3761C20.4339 37.4661 18.879 36.4971 17.3605 35.4691C17.2217 33.6507 17.1518 31.8289 17.1508 30.0039C17.1495 28.1802 17.2182 26.3589 17.3563 24.539C18.8438 23.5299 20.4031 22.554 22.0154 21.6293C23.635 20.7002 25.2679 19.846 26.8916 19.0718C28.5358 19.8656 30.1503 20.7162 31.7351 21.6238C33.3254 22.5318 34.8847 23.4905 36.413 24.4998C36.5442 26.3287 36.6097 28.1603 36.6098 29.9948ZM39.499 14.7163C45.3013 13.5952 49.6762 14.3494 50.7722 16.235C51.9397 18.2438 50.2664 22.6805 46.0797 27.354C45.8484 27.6119 45.6082 27.8709 45.3596 28.1309C43.3195 26.2991 41.1563 24.6073 38.8849 23.0674C38.6557 20.3943 38.2466 17.7394 37.6605 15.1206C38.2852 14.9679 38.8981 14.8332 39.499 14.7163ZM39.1068 26.3704C40.6389 27.4816 42.112 28.6711 43.52 29.9339C42.1182 31.2175 40.6498 32.4275 39.1208 33.5588C39.1676 32.371 39.1907 31.1826 39.1899 29.9936C39.1894 28.7856 39.1617 27.5779 39.1068 26.3704ZM50.7882 43.7366C49.6906 45.6301 45.4493 46.4197 39.7587 45.3501C39.1066 45.2278 38.4375 45.0823 37.7513 44.9134C38.3233 42.2609 38.7142 39.5731 38.9214 36.8682C41.189 35.3014 43.3453 33.5814 45.3752 31.7206C45.7304 32.0871 46.0683 32.452 46.3888 32.8152C48.204 34.7758 49.6403 37.0514 50.626 39.5287C50.9412 40.1818 51.1183 40.8922 51.1462 41.616C51.174 42.3397 51.0522 43.0615 50.7882 43.7366Z" fill="#EEEEEE"/>
</g>
<defs>
<clipPath id="clip0_289_1815">
<rect width="54" height="60" fill="white"/>
</clipPath>
</defs>
</svg>
