<svg width="83" height="74" viewBox="0 0 83 74" fill="none" xmlns="http://www.w3.org/2000/svg">
<path d="M41 40C36.04 40 32 44.04 32 49C32 53.96 36.04 58 41 58C45.96 58 50 53.96 50 49C50 44.04 45.96 40 41 40ZM41 56C37.14 56 34 52.86 34 49C34 45.14 37.14 42 41 42C44.86 42 48 45.14 48 49C48 52.86 44.86 56 41 56ZM66 18C65.66 18 65.33 18.01 65.01 18.03C61.92 7.37 52.17 0 41 0C29.83 0 20.08 7.37 16.99 18.03C16.67 18.01 16.34 18 16 18C7.18 18 0 25.18 0 34C0 42.82 7.18 50 16 50V51.09C16 52.69 17.14 54.04 18.72 54.3L22.25 54.89C22.69 54.96 23.06 55.26 23.21 55.68C23.36 56.09 23.52 56.48 23.7 56.87C23.88 57.27 23.83 57.74 23.58 58.1L21.5 61.01C20.57 62.31 20.72 64.07 21.85 65.2L24.81 68.16C25.94 69.29 27.7 69.44 29 68.51L31.91 66.43C32.27 66.17 32.74 66.13 33.14 66.31C33.53 66.49 33.93 66.65 34.34 66.8C34.75 66.95 35.05 67.32 35.13 67.76L35.72 71.29C35.98 72.87 37.33 74.01 38.93 74.01H43.11C44.71 74.01 46.06 72.87 46.32 71.29L46.91 67.76C46.98 67.32 47.28 66.95 47.7 66.8C48.1 66.65 48.5 66.49 48.89 66.31C49.29 66.13 49.76 66.18 50.12 66.43L53.03 68.51C54.33 69.44 56.09 69.29 57.22 68.16L60.18 65.2C61.31 64.07 61.46 62.31 60.53 61.01L58.45 58.1C58.19 57.74 58.15 57.27 58.32 56.87C58.5 56.48 58.66 56.08 58.81 55.67C58.96 55.26 59.33 54.96 59.77 54.88L63.3 54.29C64.88 54.03 66.02 52.68 66.02 51.08V50C74.84 50 82.02 42.82 82.02 34C82.02 25.18 74.82 18 66 18ZM64 51.09C64 51.71 63.56 52.23 62.95 52.33L59.42 52.92C58.27 53.11 57.31 53.9 56.91 54.98C56.78 55.34 56.63 55.69 56.47 56.05C56 57.09 56.12 58.33 56.79 59.26L58.87 62.17C59.23 62.67 59.17 63.35 58.74 63.78L55.78 66.74C55.35 67.18 54.67 67.23 54.17 66.87L51.26 64.79C50.32 64.12 49.09 64 48.05 64.47C47.7 64.63 47.34 64.77 46.98 64.91C45.9 65.31 45.1 66.27 44.92 67.42L44.33 70.95C44.23 71.56 43.71 72 43.09 72H38.91C38.29 72 37.77 71.56 37.67 70.95L37.08 67.42C36.89 66.27 36.1 65.31 35.02 64.91C34.66 64.78 34.3 64.63 33.95 64.47C33.53 64.28 33.08 64.19 32.63 64.19C31.96 64.19 31.3 64.39 30.74 64.79L27.83 66.87C27.33 67.23 26.65 67.17 26.22 66.74L23.26 63.78C22.82 63.35 22.77 62.67 23.13 62.17L25.21 59.26C25.88 58.32 26 57.09 25.53 56.05C25.37 55.7 25.23 55.35 25.09 54.99C24.69 53.91 23.73 53.11 22.58 52.93L19.05 52.34C18.44 52.24 18 51.72 18 51.1V46.92C18 46.3 18.44 45.78 19.05 45.68L22.58 45.09C23.73 44.9 24.69 44.11 25.09 43.03C25.22 42.67 25.37 42.31 25.53 41.96C26 40.92 25.88 39.69 25.21 38.75L23.13 35.84C22.77 35.34 22.83 34.66 23.26 34.23L26.22 31.27C26.65 30.83 27.33 30.78 27.83 31.14L30.74 33.22C31.68 33.89 32.91 34.01 33.95 33.54C34.3 33.38 34.66 33.24 35.02 33.1C36.1 32.7 36.9 31.74 37.08 30.59L37.67 27.06C37.77 26.45 38.29 26.01 38.91 26.01H43.09C43.71 26.01 44.23 26.45 44.33 27.06L44.92 30.59C45.11 31.74 45.9 32.7 46.98 33.1C47.34 33.23 47.7 33.38 48.05 33.54C49.1 34.01 50.33 33.89 51.26 33.22L54.17 31.14C54.67 30.78 55.35 30.84 55.78 31.27L58.74 34.23C59.18 34.66 59.23 35.34 58.87 35.84L56.79 38.75C56.12 39.69 56 40.92 56.47 41.96C56.63 42.31 56.77 42.67 56.91 43.03C57.31 44.11 58.27 44.91 59.42 45.09L62.95 45.68C63.56 45.78 64 46.3 64 46.92V51.09ZM66 48V46.91C66 45.31 64.86 43.96 63.28 43.7L59.75 43.11C59.31 43.04 58.94 42.74 58.79 42.32C58.64 41.91 58.48 41.52 58.3 41.12C58.12 40.72 58.17 40.25 58.42 39.89L60.5 36.98C61.43 35.68 61.28 33.92 60.15 32.79L57.19 29.83C56.06 28.7 54.3 28.55 53 29.48L50.09 31.56C49.73 31.82 49.26 31.86 48.86 31.68C48.47 31.5 48.07 31.34 47.66 31.19C47.25 31.04 46.95 30.67 46.87 30.23L46.28 26.7C46.04 25.14 44.69 24 43.09 24H38.91C37.31 24 35.96 25.14 35.7 26.72L35.11 30.25C35.04 30.69 34.74 31.06 34.32 31.21C33.91 31.36 33.52 31.52 33.12 31.7C32.72 31.88 32.25 31.83 31.89 31.58L28.98 29.5C27.68 28.57 25.92 28.72 24.79 29.85L21.83 32.81C20.7 33.94 20.55 35.7 21.48 37L23.56 39.91C23.82 40.27 23.86 40.74 23.68 41.14C23.5 41.53 23.34 41.93 23.19 42.34C23.04 42.75 22.67 43.05 22.23 43.13L18.7 43.72C17.14 43.96 16 45.31 16 46.91V48C8.28 48 2 41.72 2 34C2 26.28 8.28 20 16 20C16.58 20 17.11 20.03 17.62 20.09C18.12 20.15 18.59 19.83 18.71 19.34C21.29 9.13 30.46 2 41 2C51.54 2 60.71 9.13 63.29 19.34C63.41 19.83 63.87 20.15 64.38 20.09C64.89 20.03 65.42 20 66 20C73.72 20 80 26.28 80 34C80 41.72 73.72 48 66 48Z" fill="#EEEEEE"/>
</svg>
