<svg width="43" height="60" viewBox="0 0 43 60" fill="none" xmlns="http://www.w3.org/2000/svg">
<g clip-path="url(#clip0_289_1822)">
<path d="M5.41071 28.4058C10.5279 30.2044 15.9263 31.0703 21.3493 30.9622C26.7724 31.0696 32.1708 30.203 37.2878 28.4036C41.2821 26.8458 42.6986 25.1143 42.6986 24.1179V16.5C41.3021 17.4352 39.8039 18.2088 38.2328 18.8058C32.8188 20.7444 27.0992 21.6896 21.3493 21.5958C15.5999 21.6878 9.88082 20.7442 4.46571 18.81C2.89386 18.213 1.39553 17.438 0 16.5V24.1072C0 25.1229 1.42071 26.8458 5.41071 28.4058Z" fill="#EEEEEE"/>
<path d="M5.41071 42.7734C7.21844 43.4628 9.08257 43.994 10.9821 44.3612C14.3979 45.022 17.8702 45.3471 21.3493 45.3319C24.8283 45.3478 28.3005 45.0234 31.7164 44.3634C33.616 43.9962 35.4801 43.4649 37.2878 42.7755C41.2821 41.2176 42.6986 39.4862 42.6986 38.4898V31.2255C41.5442 31.9201 40.331 32.5117 39.0728 32.9934C33.3852 35.0071 27.3819 35.9819 21.3493 35.8712C15.316 35.9785 9.31267 35.0001 3.62571 32.9826C2.36812 32.4997 1.15496 31.9082 0 31.2148V38.4855C0 39.4841 1.42071 41.2091 5.41071 42.7734Z" fill="#EEEEEE"/>
<path d="M21.3493 59.9998C33.135 59.9998 42.6986 56.2626 42.6986 51.6555V45.5762C41.6485 46.2092 40.5484 46.7553 39.4093 47.2091L39.0728 47.3441C33.3863 49.3638 27.3829 50.3444 21.3493 50.2391C15.3154 50.3475 9.31148 49.3668 3.62571 47.3441C3.51 47.3012 3.39857 47.2519 3.28928 47.2091C2.1502 46.7553 1.05011 46.2092 0 45.5762V51.6555C0 56.2626 9.56357 59.9998 21.3493 59.9998Z" fill="#EEEEEE"/>
<path d="M21.3493 16.6886C33.1402 16.6886 42.6986 12.9527 42.6986 8.34429C42.6986 3.73586 33.1402 0 21.3493 0C9.5584 0 0 3.73586 0 8.34429C0 12.9527 9.5584 16.6886 21.3493 16.6886Z" fill="#EEEEEE"/>
</g>
<defs>
<clipPath id="clip0_289_1822">
<rect width="43" height="60" fill="white"/>
</clipPath>
</defs>
</svg>
