<svg width="73" height="44" viewBox="0 0 73 44" fill="none" xmlns="http://www.w3.org/2000/svg">
<g clip-path="url(#clip0_289_1830)">
<path d="M60.1314 12.7156C57.4316 11.783 55.0485 10.1062 53.2554 7.87749C51.2792 5.39427 48.7629 3.39729 45.8988 2.03932C43.0348 0.681346 39.8991 -0.00164218 36.7314 0.0426031C32.4704 -0.260049 28.2519 1.05805 24.9163 3.73441C21.5806 6.41077 19.3724 10.249 18.7314 14.4848C19.9939 12.3663 21.8939 10.7041 24.1581 9.73735C26.4222 8.77063 28.9338 8.54925 31.3314 9.10508C34.0267 10.0648 36.4059 11.7514 38.2074 13.9793C40.1945 16.4427 42.7157 18.419 45.5791 19.758C48.4425 21.0969 51.5726 21.7631 54.7314 21.7059C58.9925 22.0085 63.2109 20.6904 66.5466 18.0141C69.8823 15.3377 72.0905 11.4995 72.7314 7.2637C71.4919 9.40754 69.598 11.0949 67.3292 12.0766C65.0604 13.0583 62.5369 13.2823 60.1314 12.7156ZM13.3314 30.6961C16.0313 31.6287 18.4143 33.3055 20.2074 35.5343C22.1837 38.0175 24.7 40.0145 27.564 41.3724C30.428 42.7304 33.5638 43.4134 36.7314 43.3692C40.9925 43.6718 45.2109 42.3537 48.5466 39.6774C51.8823 37.001 54.0905 33.1627 54.7314 28.927C53.469 31.0455 51.569 32.7077 49.3048 33.6744C47.0406 34.6411 44.529 34.8625 42.1314 34.3067C39.4362 33.347 37.0569 31.6604 35.2554 29.4325C33.2631 26.9752 30.7409 25.0032 27.8787 23.6648C25.0166 22.3265 21.889 21.6567 18.7314 21.7059C14.4704 21.4032 10.2519 22.7213 6.91627 25.3977C3.58059 28.0741 1.3724 31.9123 0.731445 36.1481C1.97095 34.0042 3.86491 32.3169 6.13373 31.3352C8.40254 30.3535 10.926 30.1295 13.3314 30.6961Z" fill="#EEEEEE"/>
</g>
<defs>
<clipPath id="clip0_289_1830">
<rect width="73" height="44" fill="white"/>
</clipPath>
</defs>
</svg>
