<svg width="57" height="57" viewBox="0 0 57 57" fill="none" xmlns="http://www.w3.org/2000/svg">
<g clip-path="url(#clip0_289_1835)">
<path d="M0.135986 0V56.23H56.366V0H0.135986ZM32.7806 29.6769H25.4551V51.1693H20.7693V29.6769H13.5218V25.7096H32.7806V29.6769ZM41.1995 51.5442C38.8107 51.5905 36.4465 51.0544 34.3113 49.9822L35.3422 46.1398C37.2322 47.1631 39.3471 47.6999 41.4963 47.7018C44.464 47.7018 46.1821 46.3116 46.1821 44.2343C46.1821 42.1569 44.9013 41.1104 41.6681 40.0014C37.4665 38.5175 34.7799 36.2683 34.7799 32.6134C34.7799 28.443 38.263 25.3035 43.7923 25.3035C45.8988 25.2437 47.9901 25.677 49.8995 26.5687L48.7906 30.3173C47.217 29.5048 45.4695 29.0867 43.6986 29.099C40.7465 29.099 39.497 30.661 39.497 32.2229C39.497 34.1753 40.9652 35.0969 44.3546 36.3933C48.7906 38.0802 50.9148 40.2982 50.9148 43.9531C50.8523 48.0142 47.7597 51.5442 41.1995 51.5442Z" fill="#EEEEEE"/>
</g>
<defs>
<clipPath id="clip0_289_1835">
<rect width="57" height="57" fill="white"/>
</clipPath>
</defs>
</svg>
